<?xml version="1.0" encoding="UTF-8" standalone="no"?>
<!-- Created with Inkscape (http://www.inkscape.org/) -->

<svg
   width="85mm"
   height="54mm"
   id="svg2883"
   version="1.1"
   inkscape:version="1.1.2 (b8e25be833, 2022-02-05)"
   sodipodi:docname="mm_logo.svg"
   xmlns:inkscape="http://www.inkscape.org/namespaces/inkscape"
   xmlns:sodipodi="http://sodipodi.sourceforge.net/DTD/sodipodi-0.dtd"
   xmlns="http://www.w3.org/2000/svg"
   xmlns:svg="http://www.w3.org/2000/svg"
   xmlns:rdf="http://www.w3.org/1999/02/22-rdf-syntax-ns#"
   xmlns:cc="http://creativecommons.org/ns#"
   xmlns:dc="http://purl.org/dc/elements/1.1/">
  <defs
     id="defs3">
    <inkscape:perspective
       sodipodi:type="inkscape:persp3d"
       inkscape:vp_x="0 : 102.04724 : 1"
       inkscape:vp_y="0 : 1066.6667 : 0"
       inkscape:vp_z="321.25983 : 102.04724 : 1"
       inkscape:persp3d-origin="160.62992 : 68.031494 : 1"
       id="perspective2890" />
    <inkscape:perspective
       id="perspective2900"
       inkscape:persp3d-origin="0.53333333 : 0.35555555 : 1"
       inkscape:vp_z="1.0666667 : 0.53333333 : 1"
       inkscape:vp_y="0 : 1066.6667 : 0"
       inkscape:vp_x="0 : 0.53333333 : 1"
       sodipodi:type="inkscape:persp3d" />
  </defs>
  <sodipodi:namedview
     id="base"
     pagecolor="#ffffff"
     bordercolor="#666666"
     borderopacity="1.0"
     inkscape:pageopacity="0.0"
     inkscape:pageshadow="2"
     inkscape:zoom="2.3341439"
     inkscape:cx="72.617631"
     inkscape:cy="95.53824"
     inkscape:document-units="mm"
     inkscape:current-layer="g3103"
     showgrid="false"
     inkscape:window-width="3440"
     inkscape:window-height="1369"
     inkscape:window-x="-8"
     inkscape:window-y="-8"
     inkscape:window-maximized="1"
     showguides="true"
     inkscape:guide-bbox="true"
     inkscape:object-nodes="true"
     inkscape:pagecheckerboard="0"
     inkscape:snap-page="true">
    <sodipodi:guide
       orientation="0,1"
       position="37.257386,98.527631"
       id="guide3609" />
  </sodipodi:namedview>
  <metadata
     id="metadata2887">
    <rdf:RDF>
      <cc:Work
         rdf:about="">
        <dc:format>image/svg+xml</dc:format>
        <dc:type
           rdf:resource="http://purl.org/dc/dcmitype/StillImage" />
        <dc:title />
      </cc:Work>
    </rdf:RDF>
  </metadata>
  <g
     inkscape:label="Logo"
     inkscape:groupmode="layer"
     id="layer1">
    <rect
       style="fill:#111419;fill-opacity:1;fill-rule:evenodd"
       id="rect45"
       width="321.25986"
       height="204.0945"
       x="0"
       y="0"
       ry="9.4252968" />
    <g
       id="g3103"
       transform="matrix(1.2484634,0,0,1.2688023,-9.9461239,38.842476)">
      <g
         transform="matrix(0.11245387,0.03013191,-0.03013191,0.11245387,11.417051,-24.106326)"
         id="g4693"
         style="display:inline">
        <path
           sodipodi:nodetypes="ccccccccccc"
           d="m 640.12145,168.25946 -358.4986,1e-5 -1e-5,154.52511 H 161.09359 c 0,0 0,241.68142 0,241.68142 0,0 92.71506,0.0661 92.71506,0.0661 l -3.5e-4,-9.4e-4 L 253.75,415.5 H 374.33826 V 257.88438 h 265.7832"
           style="fill:#7489a6;fill-opacity:1"
           id="path4571" />
        <path
           id="path4618"
           d="m 253.75,415.5 h 120.58826 l 52.79672,52.79672 -120.52926,-10e-6 z"
           style="fill:#e6e6e6;fill-opacity:1;stroke:none"
           sodipodi:nodetypes="ccccc" />
        <path
           sodipodi:nodetypes="ccccc"
           style="fill:#e6e6e6;fill-opacity:1;stroke:none"
           d="m 374.33826,257.88438 h 265.7832 l 52.73772,55.88723 -265.7242,-1e-5 z"
           id="path4679" />
        <path
           sodipodi:nodetypes="ccccc"
           style="fill:#e6e6e6;fill-opacity:1;stroke:none"
           d="m 161.09359,564.466 h 92.64955 l 52.79672,52.79672 -92.59055,-10e-6 z"
           id="path4681" />
        <path
           sodipodi:nodetypes="ccccc"
           style="fill:#e6e6e6;fill-opacity:1;stroke:none"
           d="m 399.26213,561.01213 h 120.58826 l 52.79672,52.79672 -120.52926,-10e-6 z"
           id="path4711" />
        <path
           id="path4713"
           d="m 519.85039,403.39651 h 265.7832 l 52.73772,55.88723 -265.7242,-1e-5 z"
           style="fill:#e6e6e6;fill-opacity:1;stroke:none"
           sodipodi:nodetypes="ccccc" />
        <path
           id="path4715"
           d="m 306.67123,710.04423 h 92.64955 l 52.79672,52.79672 -92.59055,-10e-6 z"
           style="fill:#e6e6e6;fill-opacity:1;stroke:none"
           sodipodi:nodetypes="ccccc" />
        <path
           id="path4748"
           style="fill:#7489a6;fill-opacity:1"
           d="m 785.63358,313.77159 -358.4986,10e-6 -10e-6,154.52511 H 306.60572 c 0,0 0,241.68142 0,241.68142 0,0 92.71506,0.0661 92.71506,0.0661 l -3.5e-4,-9.4e-4 -0.0583,-149.03116 H 519.85039 V 403.39651 h 265.7832"
           sodipodi:nodetypes="ccccccccccc" />
      </g>
      <g
         aria-label="miggitymedia"
         id="text3860"
         style="line-height:0%;font-family:'Perspective Sans';display:inline;fill:#e6e6e6"
         transform="translate(-3.2039386,3.1525794)">
        <path
           d="M 79.807315,66.1977 V 76.877548 H 74.9504 V 69.35067 q 0,-1.100185 -0.05367,-1.864948 -0.05367,-0.77818 -0.295172,-1.261188 -0.241504,-0.483008 -0.737929,-0.697679 -0.483008,-0.228087 -1.368523,-0.228087 -0.711096,0 -1.38194,0.295172 -0.670845,0.281755 -1.207521,0.60376 v 10.679848 h -4.83008 V 61.810375 h 4.830082 v 1.663695 q 1.247771,-0.979433 2.388207,-1.529526 1.140436,-0.550092 2.522377,-0.550092 1.489275,0 2.629711,0.670844 1.140436,0.657428 1.784447,1.94545 1.449025,-1.220937 2.817548,-1.918616 1.368523,-0.697678 2.683379,-0.697678 2.441875,0 3.703063,1.462441 1.274605,1.462442 1.274605,4.212905 v 9.80775 H 84.852068 V 69.35067 q 0,-1.113602 -0.05367,-1.878365 -0.04025,-0.764763 -0.281754,-1.247771 -0.228088,-0.483008 -0.724513,-0.697679 -0.496425,-0.228087 -1.395357,-0.228087 -0.60376,0 -1.180687,0.21467 -0.576926,0.201254 -1.408774,0.684262 z"
           style="font-weight:bold;-inkscape-font-specification:'Perspective Sans Bold'"
           id="path1434" />
        <path
           d="M 98.980059,76.877548 H 94.149976 V 61.810375 h 4.830083 z m 0.134169,-17.213876 h -5.09842 V 56.00086 h 5.09842 z"
           style="font-weight:bold;-inkscape-font-specification:'Perspective Sans Bold'"
           id="path1436" />
        <path
           d="m 118.19305,75.146769 q 0,2.119869 -0.60376,3.568894 -0.60376,1.449024 -1.69052,2.267455 -1.08677,0.831847 -2.62972,1.194104 -1.52952,0.375673 -3.46156,0.375673 -1.56977,0 -3.0993,-0.187837 -1.51611,-0.187836 -2.62971,-0.456174 v -3.770148 h 0.59034 q 0.88552,0.34884 2.16012,0.630594 1.27461,0.295172 2.28088,0.295172 1.34169,0 2.17353,-0.254921 0.84527,-0.241504 1.28803,-0.697678 0.41592,-0.429341 0.60376,-1.100186 0.18783,-0.670845 0.18783,-1.610027 v -0.281755 q -0.8721,0.711095 -1.93203,1.127019 -1.05994,0.415924 -2.36137,0.415924 -3.16639,0 -4.88375,-1.905199 -1.71737,-1.905199 -1.71737,-5.796099 0,-1.864948 0.52326,-3.220054 0.52326,-1.355107 1.47586,-2.361374 0.88552,-0.939182 2.17354,-1.462441 1.30144,-0.523259 2.65654,-0.523259 1.22094,0 2.21379,0.295171 1.00627,0.281755 1.8247,0.791597 l 0.17442,-0.670845 h 4.68249 z m -4.83008,-3.018802 v -6.829199 q -0.41592,-0.17442 -1.01968,-0.268338 -0.60376,-0.107335 -1.08677,-0.107335 -1.9052,0 -2.8578,1.100185 -0.9526,1.086769 -0.9526,3.045635 0,2.173537 0.80502,3.032219 0.81843,0.858681 2.41504,0.858681 0.72451,0 1.42219,-0.228087 0.69768,-0.228087 1.2746,-0.603761 z"
           style="font-weight:bold;-inkscape-font-specification:'Perspective Sans Bold'"
           id="path1438" />
        <path
           d="m 137.40604,75.146769 q 0,2.119869 -0.60376,3.568894 -0.60376,1.449024 -1.69053,2.267455 -1.08676,0.831847 -2.62971,1.194104 -1.52952,0.375673 -3.46156,0.375673 -1.56977,0 -3.0993,-0.187837 -1.51611,-0.187836 -2.62971,-0.456174 v -3.770148 h 0.59034 q 0.88552,0.34884 2.16012,0.630594 1.27461,0.295172 2.28088,0.295172 1.34169,0 2.17353,-0.254921 0.84527,-0.241504 1.28802,-0.697678 0.41593,-0.429341 0.60377,-1.100186 0.18783,-0.670845 0.18783,-1.610027 v -0.281755 q -0.8721,0.711095 -1.93203,1.127019 -1.05994,0.415924 -2.36137,0.415924 -3.16639,0 -4.88375,-1.905199 -1.71737,-1.905199 -1.71737,-5.796099 0,-1.864948 0.52326,-3.220054 0.52326,-1.355107 1.47586,-2.361374 0.88552,-0.939182 2.17354,-1.462441 1.30144,-0.523259 2.65654,-0.523259 1.22094,0 2.21379,0.295171 1.00627,0.281755 1.8247,0.791597 l 0.17442,-0.670845 h 4.68249 z m -4.83008,-3.018802 v -6.829199 q -0.41592,-0.17442 -1.01968,-0.268338 -0.60376,-0.107335 -1.08677,-0.107335 -1.9052,0 -2.8578,1.100185 -0.9526,1.086769 -0.9526,3.045635 0,2.173537 0.80501,3.032219 0.81844,0.858681 2.41505,0.858681 0.72451,0 1.42219,-0.228087 0.69768,-0.228087 1.2746,-0.603761 z"
           style="font-weight:bold;-inkscape-font-specification:'Perspective Sans Bold'"
           id="path1440" />
        <path
           d="m 146.79787,76.877548 h -4.83008 V 61.810375 h 4.83008 z m 0.13417,-17.213876 h -5.09842 V 56.00086 h 5.09842 z"
           style="font-weight:bold;-inkscape-font-specification:'Perspective Sans Bold'"
           id="path1442" />
        <path
           d="m 160.99295,76.743379 q -0.77818,0.201254 -1.65028,0.308589 -0.8721,0.120752 -2.13329,0.120752 -2.81755,0 -4.19949,-1.140436 -1.36852,-1.140436 -1.36852,-3.904317 v -7.043869 h -1.9857 v -3.273723 h 1.9857 v -4.306823 h 4.83008 v 4.306823 h 4.5215 v 3.273723 h -4.5215 v 5.339924 q 0,0.791597 0.0134,1.38194 0.0134,0.590343 0.21467,1.059935 0.18784,0.469591 0.65743,0.751346 0.48301,0.268338 1.39535,0.268338 0.37568,0 0.97944,-0.161003 0.61717,-0.161003 0.85868,-0.295172 h 0.40251 z"
           style="font-weight:bold;-inkscape-font-specification:'Perspective Sans Bold'"
           id="path1444" />
        <path
           d="m 170.67995,71.551041 3.43472,-9.740666 h 4.96425 l -8.37214,20.594934 h -5.23259 l 2.38821,-5.635096 -5.86318,-14.959838 h 5.07158 z"
           style="font-weight:bold;-inkscape-font-specification:'Perspective Sans Bold'"
           id="path1446" />
        <path
           d="m 203.83309,76.877548 h -2.52237 v -8.533145 q 0,-0.966016 -0.0939,-1.864948 -0.0805,-0.898932 -0.36226,-1.435608 -0.30859,-0.576926 -0.88551,-0.872098 -0.57693,-0.295172 -1.6637,-0.295172 -1.05993,0 -2.11987,0.536676 -1.05993,0.523259 -2.11987,1.34169 0.0403,0.308588 0.0671,0.724512 0.0268,0.402507 0.0268,0.805013 v 9.59308 h -2.52237 v -8.533145 q 0,-0.99285 -0.0939,-1.878365 -0.0805,-0.898932 -0.36226,-1.435608 -0.30859,-0.576926 -0.88551,-0.858681 -0.57693,-0.295172 -1.6637,-0.295172 -1.0331,0 -2.07962,0.509842 -1.0331,0.509842 -2.0662,1.301439 v 11.18969 h -2.52237 V 61.890877 h 2.52237 v 1.663695 q 1.18069,-0.979434 2.34796,-1.529526 1.18069,-0.550093 2.50896,-0.550093 1.52952,0 2.58946,0.644011 1.07335,0.644011 1.59661,1.784447 1.52952,-1.288022 2.79071,-1.851531 1.26119,-0.576927 2.6968,-0.576927 2.46871,0 3.63598,1.502692 1.18068,1.489276 1.18068,4.172655 z"
           style="font-size:27.4778px;line-height:1.25;-inkscape-font-specification:'Perspective Sans'"
           id="path1448" />
        <path
           d="M 221.23481,69.645842 H 210.1927 q 0,1.38194 0.41593,2.415041 0.41592,1.019684 1.14043,1.677112 0.69768,0.644011 1.65028,0.966016 0.96602,0.322006 2.11987,0.322006 1.52953,0 3.07247,-0.603761 1.55636,-0.617177 2.21379,-1.20752 h 0.13417 v 2.750463 q -1.27461,0.536676 -2.60288,0.898932 -1.32827,0.362256 -2.79072,0.362256 -3.72989,0 -5.82293,-2.012534 -2.09303,-2.025951 -2.09303,-5.742431 0,-3.676229 1.99911,-5.836349 2.01254,-2.16012 5.28626,-2.16012 3.03222,0 4.66908,1.77103 1.65028,1.77103 1.65028,5.031336 z m -2.45529,-1.932033 q -0.0134,-1.9857 -1.00627,-3.072469 -0.97943,-1.086768 -2.99197,-1.086768 -2.02595,0 -3.23347,1.194103 -1.1941,1.194104 -1.35511,2.965134 z"
           style="font-size:27.4778px;line-height:1.25;-inkscape-font-specification:'Perspective Sans'"
           id="path1450" />
        <path
           d="m 237.21432,76.877548 h -2.52237 v -1.569776 q -1.08677,0.939182 -2.26746,1.462441 -1.18068,0.523259 -2.56262,0.523259 -2.68338,0 -4.26658,-2.066202 -1.56977,-2.066202 -1.56977,-5.729014 0,-1.905199 0.53667,-3.394474 0.5501,-1.489276 1.47586,-2.535793 0.91235,-1.019684 2.11987,-1.55636 1.22094,-0.536676 2.52238,-0.536676 1.18068,0 2.09303,0.254921 0.91235,0.241504 1.91862,0.764763 V 56.00086 h 2.52237 z m -2.52237,-3.689646 v -8.600229 q -1.01969,-0.456175 -1.8247,-0.630594 -0.80501,-0.17442 -1.75761,-0.17442 -2.11987,0 -3.30056,1.475858 -1.18069,1.475859 -1.18069,4.186072 0,2.669962 0.91235,4.065319 0.91235,1.38194 2.92489,1.38194 1.07335,0 2.17353,-0.469592 1.10019,-0.483008 2.05279,-1.234354 z"
           style="font-size:27.4778px;line-height:1.25;-inkscape-font-specification:'Perspective Sans'"
           id="path1452" />
        <path
           d="m 244.8888,59.381918 h -2.84439 v -2.616295 h 2.84439 z m -0.16101,17.49563 h -2.52237 V 61.890877 h 2.52237 z"
           style="font-size:27.4778px;line-height:1.25;-inkscape-font-specification:'Perspective Sans'"
           id="path1454" />
        <path
           d="m 261.36473,76.877548 h -2.50896 v -1.59661 q -0.33542,0.228087 -0.91235,0.644011 -0.56351,0.402507 -1.10018,0.644011 -0.6306,0.308588 -1.44903,0.509842 -0.81843,0.21467 -1.91861,0.21467 -2.02595,0 -3.43473,-1.34169 -1.40877,-1.341689 -1.40877,-3.421308 0,-1.703945 0.72451,-2.750463 0.73793,-1.059935 2.09304,-1.663695 1.36852,-0.60376 3.28713,-0.818431 1.91862,-0.21467 4.11899,-0.322005 v -0.38909 q 0,-0.858681 -0.30859,-1.422191 -0.29517,-0.563509 -0.85868,-0.885515 -0.53667,-0.308588 -1.28802,-0.415924 -0.75135,-0.107335 -1.56978,-0.107335 -0.99285,0 -2.21379,0.268338 -1.22093,0.254921 -2.52237,0.751346 h -0.13417 v -2.562627 q 0.73793,-0.201253 2.13329,-0.442757 1.39535,-0.241504 2.75046,-0.241504 1.58319,0 2.75046,0.268338 1.18069,0.254921 2.03937,0.885515 0.84527,0.617177 1.28802,1.59661 0.44276,0.979433 0.44276,2.428458 z m -2.50896,-3.689646 v -4.172654 q -1.15385,0.06708 -2.72363,0.201253 -1.55636,0.134169 -2.46871,0.38909 -1.08677,0.308589 -1.75761,0.966017 -0.67085,0.644011 -0.67085,1.784447 0,1.288022 0.77818,1.945449 0.77818,0.644011 2.37479,0.644011 1.32828,0 2.42846,-0.509842 1.10019,-0.523259 2.03937,-1.247771 z"
           style="font-size:27.4778px;line-height:1.25;-inkscape-font-specification:'Perspective Sans'"
           id="path1456" />
      </g>
    </g>
  </g>
</svg>
